<?xml version="1.0" standalone="no"?>
<!DOCTYPE svg PUBLIC "-//W3C//DTD SVG 20010904//EN"
 "http://www.w3.org/TR/2001/REC-SVG-20010904/DTD/svg10.dtd">
<svg version="1.0" xmlns="http://www.w3.org/2000/svg"
 width="228.000000pt" height="116.000000pt" viewBox="0 0 228.000000 116.000000"
 preserveAspectRatio="xMidYMid meet">

<g transform="translate(0.000000,116.000000) scale(0.100000,-0.100000)"
fill="#000000" stroke="none">
<path d="M1326 880 c-98 -126 -179 -230 -181 -230 -2 0 -52 56 -111 125 -59
69 -110 125 -112 125 -2 0 9 -24 26 -52 16 -29 57 -103 91 -164 l62 -111 -152
-249 c-83 -137 -154 -253 -157 -259 -13 -25 27 23 180 216 90 113 167 207 171
208 5 1 54 -50 109 -113 55 -64 102 -116 104 -116 3 0 -6 19 -19 43 -14 23
-53 93 -87 155 l-62 113 161 270 c88 148 158 269 157 269 -2 0 -83 -103 -180
-230z"/>
<path d="M190 841 c-106 -22 -172 -106 -186 -238 -19 -177 102 -303 279 -290
88 6 161 41 165 80 l3 27 -51 -32 c-88 -55 -193 -47 -252 19 -27 29 -48 88
-48 132 l0 41 188 2 187 3 -2 57 c-3 101 -52 165 -150 194 -49 15 -77 16 -133
5z m134 -52 c35 -28 53 -65 58 -119 l3 -45 -144 -3 -143 -3 7 38 c10 57 42
112 78 133 43 27 107 26 141 -1z"/>
<path d="M771 833 c-18 -9 -47 -35 -62 -56 l-29 -40 0 45 0 46 -42 3 -43 4 0
-257 0 -258 43 0 42 0 0 170 c0 187 8 225 54 256 19 12 39 15 70 12 l44 -5 4
43 c4 58 -17 68 -81 37z"/>
<path d="M1567 840 c-119 -30 -177 -118 -179 -270 -1 -62 3 -84 25 -127 15
-28 42 -64 61 -78 73 -56 186 -70 280 -35 61 23 71 33 82 74 l7 29 -35 -26
c-143 -109 -308 -50 -325 117 l-6 56 192 0 191 0 0 44 c0 85 -43 162 -110 196
-46 24 -131 33 -183 20z m146 -60 c33 -29 57 -87 57 -140 0 -20 -4 -20 -142
-18 l-143 3 3 30 c13 128 141 199 225 125z"/>
<path d="M2057 838 c-107 -29 -154 -176 -78 -247 15 -14 61 -37 101 -50 40
-13 84 -34 97 -47 65 -65 -20 -172 -116 -144 -19 5 -49 24 -67 41 l-32 31 -11
-38 c-13 -47 -1 -60 66 -70 149 -22 253 47 253 169 0 65 -33 101 -115 126
-118 37 -135 51 -135 115 0 46 39 81 92 81 33 0 45 -6 69 -33 16 -17 31 -32
33 -32 2 0 7 11 10 24 3 13 9 31 12 39 4 12 -7 20 -47 31 -59 18 -77 18 -132
4z"/>
</g>
</svg>
